<?xml version="1.0" standalone="no"?>
<!DOCTYPE svg PUBLIC "-//W3C//DTD SVG 20010904//EN"
 "http://www.w3.org/TR/2001/REC-SVG-20010904/DTD/svg10.dtd">
<svg version="1.0" xmlns="http://www.w3.org/2000/svg"
 width="3264.000000pt" height="3264.000000pt" viewBox="0 0 3264.000000 3264.000000"
 preserveAspectRatio="xMidYMid meet">
<metadata>
Created by potrace 1.16, written by Peter Selinger 2001-2019
</metadata>
<g transform="translate(0.000000,3264.000000) scale(0.100000,-0.100000)"
fill="#000000" stroke="none">
<path d="M15900 21709 c-196 -8 -332 -15 -530 -29 -74 -5 -238 -12 -365 -15
-230 -6 -574 -41 -606 -61 -9 -5 -143 -31 -234 -44 -33 -5 -107 -11 -165 -15
-177 -11 -313 -36 -455 -84 -64 -22 -131 -35 -230 -46 -276 -29 -305 -34 -367
-61 -84 -35 -181 -61 -303 -79 -102 -16 -175 -36 -210 -59 -33 -22 -146 -55
-210 -61 -104 -12 -223 -44 -267 -74 -31 -20 -80 -36 -168 -56 -83 -18 -146
-38 -187 -61 -63 -33 -117 -50 -249 -78 -41 -8 -93 -28 -123 -46 -55 -34 -109
-54 -208 -75 -35 -8 -86 -29 -117 -49 -50 -32 -130 -66 -159 -66 -7 -1 -30 -9
-52 -20 -22 -11 -43 -19 -47 -20 -5 0 -29 -15 -55 -33 -27 -19 -87 -46 -136
-61 -57 -18 -99 -39 -123 -59 -32 -29 -151 -85 -183 -86 -7 -1 -40 -21 -73
-46 -33 -25 -81 -51 -106 -59 -78 -24 -116 -43 -146 -75 -16 -17 -50 -38 -75
-48 -51 -19 -109 -52 -146 -85 -14 -12 -59 -34 -100 -50 -48 -19 -83 -40 -100
-60 -15 -18 -57 -44 -103 -64 -42 -18 -95 -49 -117 -69 -22 -20 -62 -48 -90
-62 -27 -14 -65 -41 -84 -60 -19 -19 -65 -49 -102 -67 -37 -18 -83 -49 -103
-69 -19 -20 -52 -45 -73 -56 -21 -10 -58 -39 -81 -63 -24 -24 -59 -53 -80 -63
-20 -11 -44 -27 -53 -35 -70 -65 -91 -82 -142 -114 -31 -20 -64 -48 -74 -62
-9 -14 -39 -39 -67 -55 -28 -15 -59 -42 -69 -58 -10 -17 -44 -49 -77 -72 -33
-23 -60 -45 -60 -49 0 -13 -44 -55 -81 -77 -19 -12 -47 -38 -60 -57 -14 -20
-43 -48 -65 -64 -21 -16 -50 -44 -63 -63 -13 -19 -43 -47 -67 -62 -25 -16 -51
-41 -59 -56 -7 -15 -39 -49 -69 -75 -31 -26 -56 -53 -56 -59 0 -14 -36 -49
-68 -66 -13 -7 -36 -33 -52 -59 -16 -26 -43 -56 -60 -67 -17 -11 -44 -43 -60
-71 -16 -29 -43 -62 -60 -74 -17 -12 -45 -45 -64 -73 -18 -29 -49 -70 -69 -92
-48 -53 -49 -54 -72 -100 -11 -21 -37 -55 -58 -75 -21 -19 -51 -60 -68 -91
-16 -30 -43 -63 -60 -73 -18 -11 -41 -41 -60 -81 -17 -34 -43 -76 -58 -93 -33
-37 -44 -54 -79 -122 -16 -30 -48 -75 -71 -99 -22 -24 -41 -49 -41 -56 0 -21
-53 -117 -82 -148 -16 -18 -38 -52 -49 -77 -38 -82 -57 -118 -93 -164 -20 -26
-41 -66 -47 -89 -13 -50 -31 -84 -80 -150 -24 -32 -41 -70 -49 -108 -7 -33
-17 -62 -21 -65 -5 -3 -9 -12 -9 -21 0 -9 -16 -39 -35 -67 -22 -32 -44 -85
-59 -138 -15 -55 -35 -102 -54 -125 -40 -52 -46 -66 -72 -168 -22 -91 -38
-129 -71 -175 -21 -29 -54 -127 -63 -186 -6 -43 -40 -129 -61 -154 -16 -20
-41 -103 -50 -165 -12 -87 -46 -204 -78 -268 -29 -59 -52 -159 -76 -337 -5
-36 -16 -81 -24 -100 -8 -19 -24 -55 -35 -80 -18 -42 -51 -245 -67 -415 -4
-38 -18 -122 -31 -185 -54 -258 -73 -408 -84 -685 -6 -148 -12 -288 -15 -310
-12 -126 -15 -280 -16 -775 0 -303 2 -554 4 -558 3 -4 8 -83 11 -177 4 -93 9
-195 11 -225 2 -30 7 -129 10 -220 5 -163 36 -461 56 -552 23 -103 58 -350 59
-413 1 -68 45 -363 59 -400 19 -46 58 -214 65 -275 27 -239 53 -364 95 -455
11 -22 27 -74 36 -115 30 -127 48 -182 69 -209 34 -42 54 -83 61 -126 9 -48
38 -105 82 -160 17 -22 35 -54 39 -70 16 -62 55 -151 84 -186 16 -20 42 -76
59 -124 16 -48 44 -105 61 -126 34 -43 69 -114 70 -142 0 -25 34 -89 75 -143
19 -24 37 -61 41 -82 11 -59 43 -135 70 -163 14 -15 41 -68 60 -119 20 -52 47
-107 61 -124 31 -37 65 -112 82 -180 7 -27 25 -66 40 -85 37 -47 56 -86 70
-141 16 -61 40 -117 74 -167 15 -23 41 -83 57 -134 16 -50 45 -115 64 -143 31
-47 65 -148 80 -236 3 -20 22 -60 42 -90 36 -55 67 -139 79 -215 7 -42 34
-116 47 -125 18 -14 58 -120 63 -169 6 -61 45 -213 55 -221 17 -12 51 -93 60
-142 40 -207 56 -270 80 -323 15 -33 31 -69 35 -80 9 -27 32 -165 40 -240 4
-33 16 -93 28 -132 19 -68 28 -79 60 -74 4 0 7 -3 7 -9 0 -5 6 -7 14 -4 8 3
17 0 21 -6 6 -9 9 -9 15 0 5 8 11 8 22 -3 13 -13 16 -1 26 106 7 67 15 165 18
217 3 52 8 97 9 100 2 3 7 75 10 160 4 85 9 158 11 161 2 3 4 89 5 190 1 101
5 227 9 279 7 91 14 228 25 500 7 165 16 319 20 341 25 128 25 1166 0 1439 -8
87 -15 204 -20 310 -7 166 -15 297 -21 360 -2 30 -9 179 -14 330 -5 151 -14
322 -19 380 -11 114 -18 198 -26 302 -3 37 -12 99 -20 138 -24 113 -20 199 12
264 33 67 62 85 203 120 57 15 111 33 120 40 45 39 117 65 267 96 42 9 77 27
118 60 11 9 54 26 95 39 139 44 165 54 185 71 29 26 95 56 137 64 52 10 105
35 165 78 28 21 59 38 69 38 28 0 121 46 167 83 41 31 77 49 148 68 19 6 51
25 71 42 38 35 114 77 138 77 18 0 83 44 124 82 15 15 44 32 64 39 59 19 110
47 140 77 15 16 56 41 92 57 36 15 96 52 135 82 38 29 78 53 88 53 11 0 39 20
64 44 24 24 65 54 91 67 26 13 51 30 55 37 4 6 12 12 17 12 5 0 24 14 42 31
18 17 57 42 87 56 30 14 72 45 94 69 22 24 46 44 52 44 14 0 95 78 95 90 0 5
12 15 28 22 55 29 79 44 149 101 39 31 76 57 81 57 6 0 35 24 64 52 55 54 100
89 131 101 9 3 17 12 17 20 0 7 18 29 41 48 22 19 56 47 75 63 19 15 34 33 34
40 0 7 21 25 46 41 25 16 63 50 85 76 21 26 54 54 71 62 18 9 44 32 57 52 13
19 38 44 55 55 17 11 42 33 56 50 14 17 52 59 85 94 33 34 70 74 83 89 13 14
42 37 65 49 23 13 46 33 51 44 5 12 18 27 29 34 16 10 23 9 38 -7 16 -15 19
-35 20 -110 2 -87 0 -97 -36 -170 -20 -43 -48 -123 -62 -178 -16 -67 -36 -117
-58 -150 -40 -60 -75 -129 -75 -147 0 -18 -38 -90 -54 -103 -20 -16 -66 -93
-66 -111 0 -28 -42 -92 -79 -122 -20 -16 -46 -50 -59 -75 -13 -26 -36 -57 -52
-69 -27 -22 -80 -91 -80 -106 0 -4 -16 -18 -35 -32 -19 -14 -45 -41 -58 -60
-61 -89 -411 -438 -464 -463 -13 -6 -23 -13 -23 -17 0 -12 -44 -54 -89 -85
-24 -16 -54 -43 -67 -61 -14 -17 -46 -42 -71 -55 -26 -13 -66 -43 -88 -65 -22
-23 -59 -51 -82 -63 -42 -21 -77 -58 -88 -92 -7 -22 -83 -69 -112 -69 -11 0
-28 -8 -37 -19 -16 -18 -16 -19 11 -28 55 -18 178 -6 194 19 3 5 21 13 40 18
19 5 58 15 88 24 30 8 83 18 119 22 86 8 210 39 231 57 23 21 127 57 162 57
61 0 227 43 305 80 60 28 111 43 190 55 81 13 129 27 189 55 110 53 189 80
231 80 49 0 168 37 229 71 28 16 79 35 115 44 131 31 186 50 245 81 57 30 204
74 250 74 22 0 122 46 141 65 6 6 56 21 110 34 126 30 175 47 216 75 40 27
138 63 195 71 23 4 79 28 125 54 46 26 112 55 148 64 80 20 112 33 168 71 23
16 92 43 152 61 60 18 116 39 124 46 9 8 22 20 31 27 20 17 129 62 150 62 22
0 93 37 135 71 19 15 57 33 85 40 27 7 61 18 75 26 14 7 30 13 37 13 6 0 18 8
25 18 19 27 69 58 103 66 98 21 157 50 207 99 13 13 82 39 139 51 14 3 46 23
70 44 42 36 105 72 128 72 17 0 88 40 103 57 16 20 84 63 98 63 22 0 125 54
150 79 27 27 106 71 127 71 6 0 33 18 61 39 50 40 129 81 155 81 8 0 38 21 68
48 30 26 84 62 119 80 36 18 81 46 100 63 19 17 59 42 90 56 30 15 70 42 88
61 19 19 59 48 91 63 31 15 77 45 101 66 54 46 95 73 112 73 14 1 68 45 68 55
0 11 55 54 68 55 17 0 68 35 106 72 15 16 42 36 59 45 17 8 37 22 45 29 7 8
18 14 23 14 5 0 28 19 52 43 24 23 57 49 73 57 16 8 55 40 87 72 36 36 66 58
80 58 30 0 67 27 67 49 0 27 26 44 55 37 18 -5 25 -13 25 -30 0 -26 -46 -132
-61 -142 -13 -7 -59 -100 -59 -117 0 -8 -15 -29 -34 -48 -19 -19 -48 -60 -65
-92 -17 -32 -52 -84 -79 -115 -26 -31 -59 -78 -73 -104 -13 -27 -27 -48 -31
-48 -14 0 -59 -56 -84 -105 -14 -28 -39 -59 -55 -70 -17 -11 -39 -37 -50 -58
-11 -22 -41 -60 -67 -87 -26 -26 -78 -82 -117 -125 -38 -42 -104 -114 -146
-159 -42 -44 -90 -97 -105 -116 -16 -19 -38 -41 -49 -49 -11 -8 -43 -39 -71
-68 -29 -30 -67 -65 -85 -79 -37 -27 -146 -125 -245 -219 -127 -122 -144 -136
-200 -170 -32 -20 -70 -48 -84 -64 -14 -15 -47 -40 -73 -55 -26 -15 -47 -31
-47 -34 0 -10 -65 -82 -74 -82 -14 0 -115 -69 -148 -102 -19 -18 -52 -42 -74
-53 -21 -11 -55 -36 -75 -56 -20 -19 -61 -48 -92 -63 -31 -15 -73 -42 -92 -59
-38 -34 -131 -87 -152 -87 -7 0 -13 -4 -13 -10 0 -5 -4 -10 -10 -10 -5 0 -28
-18 -50 -39 -22 -21 -52 -42 -66 -45 -29 -8 -96 -50 -134 -85 -14 -12 -53 -36
-88 -52 -35 -15 -81 -42 -102 -59 -35 -27 -65 -42 -165 -79 -17 -7 -47 -27
-68 -45 -21 -18 -56 -41 -80 -50 -115 -47 -151 -70 -159 -103 -6 -22 -16 -34
-31 -37 -12 -3 -33 -7 -47 -10 -170 -34 -205 -53 -142 -77 76 -31 224 -13 255
30 17 25 49 40 83 39 94 -1 271 37 359 77 66 31 127 49 264 80 76 17 134 37
170 59 40 23 84 37 156 50 140 25 172 34 237 67 60 30 197 69 243 69 29 0 145
48 145 60 0 14 126 58 197 69 71 11 129 33 190 72 30 19 161 58 244 73 20 3
62 22 94 41 31 19 63 35 70 35 7 0 28 7 48 15 19 8 65 19 103 25 68 11 125 32
155 57 21 18 153 63 183 63 30 0 135 37 156 55 30 26 86 52 125 59 71 12 138
38 195 75 30 20 73 41 95 47 22 7 64 19 94 28 30 8 77 31 105 50 28 19 80 44
116 55 36 11 90 27 120 36 30 9 66 27 80 38 32 28 84 49 185 77 44 13 92 33
107 46 16 12 37 25 48 29 11 3 20 11 20 16 0 5 8 9 18 9 36 0 168 52 203 80
35 27 137 70 168 70 20 0 121 49 121 59 0 11 104 57 150 66 40 9 110 43 110
55 0 10 98 60 118 60 25 0 117 44 152 73 35 29 79 49 155 69 22 6 63 30 90 53
31 26 79 52 127 70 42 15 87 38 100 52 23 25 93 64 138 78 47 14 95 40 116 62
12 13 43 32 70 44 97 41 114 50 141 74 16 14 33 28 38 33 6 4 42 20 80 36 39
15 86 42 105 61 36 34 103 68 159 80 18 4 52 24 77 46 25 21 79 54 120 73 41
19 77 42 80 50 3 9 13 16 20 16 8 0 17 6 20 14 3 8 31 23 62 35 31 11 77 39
102 61 45 41 112 80 137 80 7 0 38 23 69 51 31 28 76 60 99 70 23 10 53 30 67
44 36 36 90 71 133 86 21 8 58 32 83 55 24 23 68 53 96 67 28 15 65 40 81 57
17 18 59 48 95 68 36 20 67 40 68 44 2 4 10 8 18 8 8 0 14 4 14 10 0 15 52 61
85 75 17 7 50 32 75 55 25 22 59 47 75 56 55 27 78 42 112 74 40 39 94 76 120
84 10 3 36 26 56 51 21 25 52 52 70 61 17 9 37 23 45 30 7 8 18 14 23 14 5 0
9 5 9 10 0 17 52 58 80 65 14 3 45 23 68 45 38 36 44 38 72 29 36 -13 78 -60
86 -97 3 -15 13 -52 22 -82 20 -67 19 -301 -3 -395 -7 -33 -16 -73 -19 -90 -2
-16 -10 -50 -16 -75 -6 -25 -15 -79 -20 -122 -12 -110 -38 -195 -79 -262 -33
-54 -44 -83 -70 -183 -5 -18 -23 -50 -41 -72 -39 -51 -80 -126 -80 -150 0 -10
-18 -37 -40 -61 -22 -24 -40 -45 -40 -48 0 -2 -9 -15 -20 -29 -11 -14 -20 -32
-20 -39 0 -15 -28 -58 -81 -125 -19 -24 -44 -62 -54 -84 -11 -22 -36 -56 -57
-75 -20 -19 -48 -59 -63 -89 -14 -29 -39 -67 -55 -85 -36 -39 -76 -98 -84
-123 -3 -10 -26 -41 -52 -68 -25 -28 -53 -65 -61 -84 -9 -18 -35 -52 -58 -76
-23 -23 -58 -76 -78 -117 -20 -40 -46 -83 -58 -93 -27 -25 -79 -104 -79 -122
0 -8 -16 -29 -35 -49 -19 -19 -35 -38 -35 -43 0 -5 -7 -14 -14 -21 -8 -6 -25
-32 -37 -56 -12 -25 -41 -68 -64 -95 -24 -28 -48 -70 -55 -95 -7 -24 -17 -47
-21 -50 -5 -3 -9 -12 -9 -21 0 -9 -18 -40 -40 -69 -22 -29 -40 -58 -40 -64 0
-33 -78 -197 -97 -204 -7 -3 -13 -14 -13 -23 0 -10 -7 -28 -15 -40 -8 -11 -17
-40 -20 -64 -7 -49 -39 -150 -61 -191 -28 -53 -52 -145 -55 -214 -3 -63 -1
-74 22 -103 l26 -33 22 31 c12 16 27 45 33 62 22 64 351 390 437 434 26 13 63
39 82 57 30 31 99 64 169 84 14 3 47 22 73 41 47 33 130 64 210 78 21 3 59 19
85 36 67 42 144 69 236 80 63 8 103 20 181 58 66 31 125 51 174 59 80 13 168
39 191 56 14 10 28 18 78 46 9 5 56 21 103 35 49 15 111 42 145 65 32 22 67
40 76 40 9 0 19 4 23 9 3 5 27 17 53 25 28 10 63 32 83 52 67 70 102 76 166
28 25 -19 33 -34 38 -72 3 -26 15 -103 25 -172 11 -69 22 -183 25 -255 3 -71
8 -148 10 -170 10 -89 16 -200 25 -405 9 -215 24 -351 60 -530 10 -52 21 -115
24 -140 3 -25 10 -74 16 -110 6 -36 15 -137 20 -225 12 -183 27 -278 76 -480
22 -91 42 -220 48 -320 13 -195 47 -416 81 -525 15 -47 21 -81 29 -165 3 -27
10 -84 16 -125 5 -41 14 -133 20 -205 5 -71 19 -170 30 -220 63 -284 80 -402
91 -650 5 -110 11 -213 13 -230 3 -16 10 -84 16 -150 6 -66 20 -169 30 -230
31 -180 41 -383 47 -890 3 -264 9 -498 15 -520 5 -22 11 -49 12 -60 3 -25 37
-95 47 -95 10 0 41 117 50 190 4 36 14 103 23 150 9 47 16 95 16 108 0 12 9
41 19 65 38 83 59 164 81 307 20 133 50 248 72 276 14 18 58 211 58 252 0 39
46 209 61 228 9 11 32 87 49 164 4 19 11 69 14 110 6 68 47 221 66 245 16 21
50 127 50 158 1 67 47 252 77 307 23 42 36 88 52 185 28 165 51 243 79 278 18
22 51 140 62 222 10 78 36 168 59 204 22 35 61 150 61 180 0 53 33 178 66 247
18 39 40 104 49 143 8 39 22 104 31 143 8 40 28 100 44 134 38 78 68 175 76
239 7 59 41 169 64 205 19 29 46 140 55 220 6 60 27 133 55 195 30 66 57 155
75 250 28 152 33 168 68 245 20 44 37 100 41 135 4 33 13 91 21 130 8 38 15
80 15 92 0 12 15 55 34 95 39 83 76 225 76 291 0 25 9 74 20 109 11 34 20 71
20 81 0 10 7 32 17 50 26 50 63 206 63 268 0 62 42 284 64 339 8 19 17 51 21
70 12 68 16 85 25 120 5 19 12 105 16 190 4 85 8 157 9 160 2 9 15 229 21 359
6 153 7 997 0 1106 -3 44 -8 130 -11 190 -3 61 -10 148 -15 195 -6 47 -10 117
-10 155 0 84 -35 288 -56 330 -20 38 -64 251 -64 307 0 51 -45 221 -60 226 -5
2 -10 8 -10 13 0 6 -9 30 -20 55 -11 24 -25 77 -30 116 -13 98 -36 174 -70
225 -16 23 -42 89 -59 147 -16 57 -42 123 -58 147 -15 23 -31 47 -35 53 -15
25 -39 86 -44 115 -4 17 -13 36 -20 42 -8 6 -14 17 -14 23 0 7 -11 23 -25 36
-14 13 -25 29 -25 36 0 6 -6 17 -14 23 -8 7 -18 27 -22 44 -8 37 -27 70 -66
112 -15 17 -43 60 -62 97 -19 36 -51 82 -70 101 -19 19 -44 53 -55 75 -12 23
-39 55 -60 72 -22 18 -49 51 -61 73 -12 23 -42 57 -66 76 -24 18 -44 37 -44
42 0 11 -77 88 -113 113 -15 10 -27 24 -27 30 0 6 -14 22 -32 36 -76 59 -95
86 -108 156 l-13 68 29 23 c16 13 45 28 64 34 43 14 140 68 140 78 0 13 93 50
145 57 51 7 114 34 150 64 28 23 90 46 150 54 50 7 163 43 178 57 5 4 6 16 3
26 -5 15 -24 24 -74 36 -56 13 -87 14 -187 6 -116 -10 -218 -31 -241 -50 -27
-22 -143 -60 -213 -68 -84 -11 -210 -48 -226 -66 -5 -6 -27 -22 -49 -34 l-39
-22 -38 26 c-22 14 -40 33 -41 43 0 9 -2 175 -2 367 -2 388 -13 524 -57 705
-15 63 -33 153 -39 200 -27 196 -69 340 -101 340 -27 0 -51 41 -55 92 -4 46
-15 134 -19 148 -1 3 -7 25 -14 50 -12 41 -14 43 -27 26 -34 -47 -30 -255 6
-371 28 -87 41 -241 42 -490 1 -165 -2 -198 -19 -249 l-20 -58 -19 25 c-11 13
-41 36 -67 49 -56 30 -77 55 -112 133 -14 32 -43 76 -65 96 -22 21 -40 44 -40
51 0 15 -77 119 -96 131 -7 4 -27 33 -45 65 -18 31 -36 59 -41 60 -4 2 -8 10
-8 18 0 8 -4 14 -8 14 -13 0 -72 56 -72 68 0 7 -4 12 -9 12 -5 0 -14 12 -20
28 -6 15 -25 34 -41 44 -16 9 -42 36 -59 60 -17 23 -36 48 -42 53 -7 6 -45 42
-85 80 -40 39 -104 100 -143 138 -38 37 -75 67 -82 67 -6 0 -34 25 -62 55 -27
30 -55 55 -61 55 -12 0 -60 38 -113 88 -18 18 -57 45 -85 60 -28 15 -70 46
-94 70 -23 23 -57 49 -75 57 -19 8 -56 34 -82 59 -27 25 -64 51 -83 58 -19 6
-34 15 -34 19 0 4 -12 12 -27 18 -16 6 -43 27 -61 45 -18 19 -56 43 -84 53
-28 10 -67 34 -87 54 -20 20 -49 41 -66 47 -110 40 -138 54 -166 82 -17 17
-70 49 -117 71 -47 22 -106 55 -131 73 -25 19 -62 38 -81 44 -73 22 -107 37
-155 73 -29 22 -87 50 -140 67 -54 18 -105 43 -128 62 -22 18 -71 42 -115 57
-72 23 -129 48 -226 100 -23 12 -59 24 -81 28 -83 14 -152 38 -202 71 -35 22
-85 42 -155 59 -57 14 -139 43 -183 65 -62 31 -109 46 -211 64 -132 25 -169
37 -214 67 -29 20 -153 55 -225 64 -56 7 -169 41 -200 60 -34 21 -157 53 -230
60 -79 8 -222 38 -275 59 -19 7 -60 23 -91 35 -31 12 -89 26 -130 31 -127 15
-293 39 -314 44 -11 3 -58 16 -105 30 -121 35 -279 57 -575 82 -38 3 -86 9
-105 14 -19 5 -60 11 -90 15 -30 4 -73 13 -95 20 -22 7 -71 16 -110 20 -38 3
-119 13 -180 20 -60 8 -193 16 -295 20 -382 12 -489 17 -615 30 -177 18 -788
25 -1105 14z"/>
<path d="M18228 9135 c-1 -1 -23 -5 -48 -8 -121 -15 -189 -28 -229 -42 -24 -8
-53 -15 -64 -15 -11 0 -51 -32 -96 -77 -62 -63 -82 -91 -105 -148 -15 -38 -34
-77 -41 -85 -7 -8 -22 -43 -33 -77 -23 -70 -28 -158 -37 -628 -9 -444 -21
-524 -94 -615 -20 -25 -48 -62 -61 -82 -25 -38 -80 -68 -157 -88 -85 -21 -98
-48 -109 -218 l-5 -83 33 -31 c18 -17 51 -39 73 -49 23 -10 54 -30 70 -44 17
-14 42 -33 57 -41 30 -15 98 -99 98 -120 0 -7 8 -19 18 -26 52 -39 67 -155 77
-593 6 -294 14 -488 22 -545 4 -25 6 -50 5 -56 -1 -5 14 -36 33 -68 19 -32 35
-63 35 -69 0 -46 110 -197 144 -197 8 0 16 -4 18 -8 2 -5 41 -31 88 -57 l85
-50 137 -3 c150 -4 169 1 193 49 18 34 28 146 15 154 -5 3 -7 12 -4 19 3 8 1
17 -5 21 -6 3 -11 18 -11 33 0 38 -63 70 -150 75 -102 7 -172 55 -212 144 -22
52 -22 52 -33 603 -5 275 -10 345 -26 394 -5 16 -9 38 -9 50 0 12 -12 44 -26
71 -14 28 -31 74 -39 103 -15 57 -63 152 -77 152 -13 0 -87 70 -93 88 -3 9
-21 28 -40 41 -20 13 -45 37 -57 54 l-21 29 25 23 c14 12 39 30 57 39 42 22
81 57 81 72 0 7 17 25 38 40 38 27 82 102 82 138 0 9 15 49 34 89 60 128 68
201 75 677 6 389 8 428 26 463 10 20 22 37 26 37 4 0 14 6 21 13 7 7 36 34 64
59 47 41 57 46 118 52 123 12 166 51 166 149 0 53 -17 102 -47 135 -7 7 -19
22 -26 33 -13 17 -49 33 -59 24z"/>
<path d="M21927 9105 c-49 -46 -59 -70 -63 -154 -2 -67 0 -81 17 -100 31 -33
69 -48 142 -56 67 -7 69 -8 151 -81 l83 -74 12 -72 c13 -73 18 -222 22 -588 3
-257 13 -377 34 -420 37 -76 55 -118 78 -178 23 -61 32 -73 97 -137 16 -16 30
-35 30 -42 0 -6 9 -15 20 -18 11 -3 20 -10 20 -14 0 -5 13 -14 29 -21 16 -6
39 -22 51 -35 20 -22 21 -25 6 -48 -9 -13 -33 -40 -54 -59 -20 -19 -54 -52
-74 -74 -20 -21 -53 -54 -73 -73 -19 -19 -35 -43 -35 -55 0 -12 -8 -34 -18
-51 -10 -16 -22 -43 -26 -60 -4 -16 -14 -37 -21 -45 -7 -8 -22 -44 -33 -80
-22 -69 -24 -116 -38 -705 -4 -155 -11 -283 -19 -317 -26 -112 -104 -175 -229
-185 -129 -10 -168 -56 -166 -196 1 -116 0 -112 36 -136 30 -21 44 -23 152
-22 136 1 168 9 220 49 20 15 52 34 70 41 17 8 32 17 32 22 0 5 5 9 10 9 32 0
140 119 140 154 0 15 19 64 56 142 25 53 26 66 53 494 4 69 9 221 10 338 1
117 4 227 7 245 10 58 36 132 54 152 9 11 31 42 49 68 18 26 51 60 74 75 23
15 55 39 72 54 16 15 41 30 55 33 14 3 43 18 65 34 l40 27 0 95 c-1 136 -9
169 -47 201 -18 15 -49 30 -68 34 -61 11 -117 42 -149 83 -17 21 -31 42 -31
45 0 8 -61 66 -70 66 -4 0 -10 15 -13 33 -3 17 -12 59 -20 93 -10 40 -17 153
-21 335 -13 584 -22 688 -66 794 -5 11 -18 42 -29 69 -12 27 -21 57 -21 67 0
11 -9 28 -20 39 -11 11 -20 24 -20 29 0 5 -9 13 -20 16 -11 3 -20 10 -20 14 0
21 -86 92 -124 102 -22 6 -59 18 -81 25 -57 20 -192 44 -245 44 -35 0 -52 -6
-73 -25z"/>
<path d="M10257 9108 c-96 -10 -258 -52 -291 -73 -13 -9 -36 -34 -50 -55 -15
-22 -30 -40 -35 -40 -4 0 -19 -10 -33 -23 -23 -21 -42 -78 -68 -197 -6 -25
-17 -63 -24 -85 -8 -22 -17 -69 -20 -105 -4 -36 -8 -76 -10 -90 -4 -25 -12
-205 -21 -475 -8 -254 -16 -354 -31 -411 -8 -30 -14 -63 -14 -72 0 -10 -27
-44 -60 -76 -33 -33 -60 -64 -60 -70 0 -19 -74 -54 -130 -61 -79 -10 -100 -30
-116 -118 -8 -39 -14 -99 -14 -132 0 -52 4 -65 30 -97 18 -22 43 -39 63 -43
70 -16 121 -51 232 -162 69 -70 88 -183 100 -588 3 -115 10 -250 15 -300 5
-49 11 -135 15 -190 3 -55 10 -111 14 -125 5 -14 14 -50 21 -80 31 -139 51
-181 125 -255 39 -39 86 -77 105 -85 19 -7 54 -26 77 -42 51 -35 117 -48 237
-48 143 0 184 31 194 147 3 38 0 60 -12 78 -9 13 -16 30 -16 38 0 18 -42 57
-61 57 -8 0 -20 5 -25 10 -6 6 -45 14 -86 19 -89 10 -128 30 -154 79 -10 20
-29 48 -40 62 -33 39 -43 139 -49 505 -9 555 -19 633 -93 735 -19 25 -36 58
-39 73 -6 27 -30 57 -89 107 -16 14 -43 41 -59 60 -17 19 -45 47 -63 63 -46
39 -41 59 26 103 82 55 165 143 198 211 16 32 34 63 41 68 7 6 24 42 37 80 26
78 32 162 41 605 3 140 11 313 17 384 l11 129 36 36 c21 20 54 57 74 82 34 43
40 47 94 53 68 8 145 29 191 53 31 17 32 19 32 82 0 54 -5 71 -26 103 -15 21
-33 38 -40 38 -8 0 -14 4 -14 10 0 14 -55 40 -82 39 -13 -1 -58 -6 -101 -11z"/>
<path d="M14048 9103 c-29 -31 -48 -101 -48 -173 0 -57 4 -71 25 -94 20 -22
45 -31 76 -28 3 1 34 -3 68 -8 52 -7 71 -16 122 -57 107 -86 107 -83 115 -528
3 -159 7 -308 9 -330 15 -139 28 -231 35 -240 4 -5 22 -66 40 -135 39 -149 48
-168 101 -217 23 -21 47 -50 55 -65 8 -15 38 -43 68 -62 59 -38 89 -73 78 -92
-13 -22 -105 -127 -169 -191 -35 -35 -63 -65 -63 -69 0 -3 -8 -18 -18 -32 -10
-15 -29 -65 -41 -112 -13 -47 -31 -110 -41 -140 -23 -66 -27 -90 -35 -195 -4
-44 -8 -82 -10 -85 -2 -3 -6 -157 -10 -342 -8 -460 -17 -495 -140 -532 -27 -8
-83 -18 -124 -22 -97 -9 -115 -25 -130 -120 -6 -38 -9 -78 -7 -89 3 -11 5 -37
5 -57 1 -24 9 -46 22 -59 20 -20 29 -21 167 -17 162 5 132 -4 312 93 25 14 50
25 56 25 14 0 58 49 76 85 21 43 41 77 57 98 45 55 55 141 66 535 10 402 21
605 36 667 13 49 32 95 40 95 4 0 12 15 19 33 27 75 55 116 96 142 24 15 60
42 81 61 21 19 43 34 48 34 26 1 121 58 132 80 17 33 10 184 -10 232 -16 39
-62 69 -125 83 -52 11 -119 53 -156 98 -19 23 -56 85 -83 139 -52 101 -52 98
-68 313 -2 33 -7 211 -10 395 -6 354 -17 516 -34 533 -6 6 -11 19 -11 29 0 9
-6 21 -13 25 -7 4 -25 33 -41 64 -31 63 -94 134 -147 167 -32 20 -100 40 -204
62 -22 4 -87 11 -145 15 -96 6 -107 5 -122 -12z"/>
<path d="M16058 8261 l-33 -29 -3 -1210 -2 -1209 35 -31 c32 -30 39 -32 110
-32 68 0 77 2 98 26 12 14 24 42 27 62 3 20 3 569 0 1219 l-5 1181 -22 26
c-21 24 -30 26 -98 26 -68 0 -77 -2 -107 -29z"/>
<path d="M20015 7849 c-16 -4 -81 -22 -144 -38 -116 -31 -221 -74 -221 -91 0
-5 -32 -35 -71 -66 -39 -31 -73 -63 -77 -72 -3 -9 -29 -49 -56 -90 -86 -125
-95 -148 -106 -279 -22 -239 13 -453 85 -530 14 -16 38 -52 53 -82 17 -33 41
-62 62 -76 20 -12 52 -43 72 -68 21 -24 49 -48 64 -51 14 -4 54 -20 88 -36 35
-17 68 -30 74 -30 6 0 12 -5 14 -10 7 -23 96 -43 207 -48 129 -5 241 10 283
39 14 11 31 19 36 19 6 0 12 3 14 8 3 7 41 24 143 63 27 10 53 27 59 36 5 10
26 33 45 51 20 18 47 43 60 55 13 12 32 41 42 63 11 23 31 55 47 72 59 65 75
115 92 297 14 144 -19 415 -51 415 -5 0 -9 7 -9 15 0 8 -6 15 -12 15 -7 0 -26
14 -43 31 -56 58 -96 60 -166 10 l-39 -29 -38 20 c-142 75 -158 96 -149 202 6
69 5 71 -28 112 -28 33 -44 44 -77 49 -24 4 -50 11 -58 15 -24 12 -162 18
-195 9z"/>
<path d="M12125 7835 c-16 -7 -75 -23 -130 -36 -107 -23 -120 -29 -205 -96
-118 -92 -220 -209 -220 -252 0 -14 -60 -101 -69 -101 -4 0 -13 -26 -19 -57
-6 -32 -14 -69 -17 -83 -3 -14 -6 -77 -6 -140 0 -135 26 -264 59 -301 22 -22
92 -158 92 -176 0 -5 14 -20 32 -33 18 -14 57 -50 87 -81 31 -31 67 -60 81
-64 14 -4 30 -11 35 -15 6 -4 28 -13 50 -20 22 -7 63 -27 90 -45 63 -40 119
-50 275 -49 125 0 240 22 240 44 0 6 9 10 19 10 11 0 22 4 25 9 4 5 38 22 78
37 51 19 85 41 118 73 25 25 58 55 74 65 15 11 34 33 43 50 17 33 24 42 72 92
19 19 38 52 42 72 5 20 14 62 20 92 6 30 17 75 25 100 22 76 24 177 4 260 -9
41 -25 111 -35 155 -10 44 -27 96 -37 115 -19 35 -21 36 -86 38 -40 1 -79 -4
-97 -12 -16 -8 -46 -21 -66 -29 l-37 -15 -51 49 c-28 27 -55 49 -59 49 -5 0
-19 11 -32 25 -19 21 -22 31 -17 72 4 26 9 60 12 74 6 22 0 32 -38 63 -77 63
-272 97 -352 61z"/>
</g>
</svg>
